<mxfile host="app.diagrams.net" modified="2023-11-30T09:25:43.563Z" agent="Mozilla/5.0 (Windows NT 10.0; Win64; x64) AppleWebKit/537.36 (KHTML, like Gecko) Chrome/119.0.0.0 Safari/537.36" etag="P9zho82rkD0vuE5jbXh6" version="22.1.5" type="device">
  <diagram name="Page-1" id="BLxl1xzLI8pXoHssbm8f">
    <mxGraphModel dx="1434" dy="750" grid="1" gridSize="10" guides="1" tooltips="1" connect="1" arrows="1" fold="1" page="1" pageScale="1" pageWidth="1169" pageHeight="1654" math="0" shadow="0">
      <root>
        <mxCell id="0" />
        <mxCell id="1" parent="0" />
        <mxCell id="E2cYebkVHFcdTyyEUBHE-6" style="edgeStyle=orthogonalEdgeStyle;rounded=0;orthogonalLoop=1;jettySize=auto;html=1;entryX=0.5;entryY=0;entryDx=0;entryDy=0;" parent="1" source="E2cYebkVHFcdTyyEUBHE-1" target="E2cYebkVHFcdTyyEUBHE-2" edge="1">
          <mxGeometry relative="1" as="geometry" />
        </mxCell>
        <mxCell id="E2cYebkVHFcdTyyEUBHE-1" value="Can I run SlimeVR?&lt;br&gt;I have Wi-Fi 2.4Ghz" style="rounded=0;whiteSpace=wrap;html=1;fillColor=#e1d5e7;strokeColor=#9673a6;" parent="1" vertex="1">
          <mxGeometry x="80" y="80" width="120" height="60" as="geometry" />
        </mxCell>
        <mxCell id="E2cYebkVHFcdTyyEUBHE-3" value="No" style="edgeStyle=orthogonalEdgeStyle;rounded=0;orthogonalLoop=1;jettySize=auto;html=1;entryX=0;entryY=0.5;entryDx=0;entryDy=0;" parent="1" source="E2cYebkVHFcdTyyEUBHE-2" target="E2cYebkVHFcdTyyEUBHE-5" edge="1">
          <mxGeometry relative="1" as="geometry">
            <mxPoint x="320" y="230" as="targetPoint" />
          </mxGeometry>
        </mxCell>
        <mxCell id="E2cYebkVHFcdTyyEUBHE-8" value="Yes" style="edgeStyle=orthogonalEdgeStyle;rounded=0;orthogonalLoop=1;jettySize=auto;html=1;" parent="1" source="E2cYebkVHFcdTyyEUBHE-2" edge="1">
          <mxGeometry relative="1" as="geometry">
            <mxPoint x="140" y="320" as="targetPoint" />
          </mxGeometry>
        </mxCell>
        <mxCell id="E2cYebkVHFcdTyyEUBHE-2" value="Do you use with a VR headset?" style="rounded=1;whiteSpace=wrap;html=1;dashed=1;" parent="1" vertex="1">
          <mxGeometry x="80" y="200" width="120" height="60" as="geometry" />
        </mxCell>
        <mxCell id="E2cYebkVHFcdTyyEUBHE-5" value="Mocap only&lt;br&gt;(You can do mocap/vtubing)" style="rounded=0;whiteSpace=wrap;html=1;fillColor=#ffe6cc;strokeColor=#d79b00;" parent="1" vertex="1">
          <mxGeometry x="360" y="200" width="120" height="60" as="geometry" />
        </mxCell>
        <mxCell id="E2cYebkVHFcdTyyEUBHE-9" style="edgeStyle=orthogonalEdgeStyle;rounded=0;orthogonalLoop=1;jettySize=auto;html=1;exitX=0.5;exitY=1;exitDx=0;exitDy=0;entryX=0.5;entryY=0;entryDx=0;entryDy=0;" parent="1" source="E2cYebkVHFcdTyyEUBHE-14" target="E2cYebkVHFcdTyyEUBHE-11" edge="1">
          <mxGeometry relative="1" as="geometry">
            <mxPoint x="140" y="520" as="targetPoint" />
            <mxPoint x="140" y="420" as="sourcePoint" />
          </mxGeometry>
        </mxCell>
        <mxCell id="E2cYebkVHFcdTyyEUBHE-13" style="edgeStyle=orthogonalEdgeStyle;rounded=0;orthogonalLoop=1;jettySize=auto;html=1;" parent="1" source="E2cYebkVHFcdTyyEUBHE-11" edge="1">
          <mxGeometry relative="1" as="geometry">
            <mxPoint x="140" y="560" as="targetPoint" />
          </mxGeometry>
        </mxCell>
        <mxCell id="E2cYebkVHFcdTyyEUBHE-11" value="PC" style="rounded=1;whiteSpace=wrap;html=1;" parent="1" vertex="1">
          <mxGeometry x="80" y="440" width="120" height="60" as="geometry" />
        </mxCell>
        <mxCell id="E2cYebkVHFcdTyyEUBHE-23" style="edgeStyle=orthogonalEdgeStyle;rounded=0;orthogonalLoop=1;jettySize=auto;html=1;entryX=0.5;entryY=0;entryDx=0;entryDy=0;" parent="1" source="E2cYebkVHFcdTyyEUBHE-12" target="E2cYebkVHFcdTyyEUBHE-25" edge="1">
          <mxGeometry relative="1" as="geometry">
            <mxPoint x="420" y="600" as="targetPoint" />
          </mxGeometry>
        </mxCell>
        <mxCell id="E2cYebkVHFcdTyyEUBHE-12" value="Standalone" style="rounded=1;whiteSpace=wrap;html=1;" parent="1" vertex="1">
          <mxGeometry x="360" y="320" width="120" height="60" as="geometry" />
        </mxCell>
        <mxCell id="E2cYebkVHFcdTyyEUBHE-15" style="edgeStyle=orthogonalEdgeStyle;rounded=0;orthogonalLoop=1;jettySize=auto;html=1;" parent="1" source="E2cYebkVHFcdTyyEUBHE-14" target="E2cYebkVHFcdTyyEUBHE-12" edge="1">
          <mxGeometry relative="1" as="geometry" />
        </mxCell>
        <mxCell id="E2cYebkVHFcdTyyEUBHE-14" value="Do you have PC&lt;br style=&quot;border-color: var(--border-color);&quot;&gt;or standalone headset?" style="rounded=0;whiteSpace=wrap;html=1;fillColor=#f5f5f5;fontColor=#333333;strokeColor=#666666;" parent="1" vertex="1">
          <mxGeometry x="80" y="320" width="120" height="60" as="geometry" />
        </mxCell>
        <mxCell id="E2cYebkVHFcdTyyEUBHE-18" value="Yes" style="edgeStyle=orthogonalEdgeStyle;rounded=0;orthogonalLoop=1;jettySize=auto;html=1;entryX=0.5;entryY=0;entryDx=0;entryDy=0;" parent="1" source="E2cYebkVHFcdTyyEUBHE-16" target="E2cYebkVHFcdTyyEUBHE-17" edge="1">
          <mxGeometry relative="1" as="geometry" />
        </mxCell>
        <mxCell id="E2cYebkVHFcdTyyEUBHE-20" value="No" style="edgeStyle=orthogonalEdgeStyle;rounded=0;orthogonalLoop=1;jettySize=auto;html=1;entryX=0.5;entryY=0;entryDx=0;entryDy=0;" parent="1" source="E2cYebkVHFcdTyyEUBHE-16" target="E2cYebkVHFcdTyyEUBHE-46" edge="1">
          <mxGeometry relative="1" as="geometry">
            <Array as="points">
              <mxPoint x="340" y="610" />
            </Array>
          </mxGeometry>
        </mxCell>
        <mxCell id="E2cYebkVHFcdTyyEUBHE-16" value="Can it run SteamVR?" style="rounded=1;whiteSpace=wrap;html=1;dashed=1;" parent="1" vertex="1">
          <mxGeometry x="80" y="560" width="120" height="60" as="geometry" />
        </mxCell>
        <mxCell id="E2cYebkVHFcdTyyEUBHE-17" value="Yes" style="rounded=0;whiteSpace=wrap;html=1;fillColor=#d5e8d4;strokeColor=#82b366;" parent="1" vertex="1">
          <mxGeometry x="80" y="800" width="120" height="60" as="geometry" />
        </mxCell>
        <mxCell id="E2cYebkVHFcdTyyEUBHE-22" value="Yes" style="edgeStyle=orthogonalEdgeStyle;rounded=0;orthogonalLoop=1;jettySize=auto;html=1;entryX=1;entryY=0.25;entryDx=0;entryDy=0;exitX=0.5;exitY=1;exitDx=0;exitDy=0;" parent="1" source="E2cYebkVHFcdTyyEUBHE-25" target="E2cYebkVHFcdTyyEUBHE-16" edge="1">
          <mxGeometry relative="1" as="geometry">
            <mxPoint x="360" y="590" as="sourcePoint" />
          </mxGeometry>
        </mxCell>
        <mxCell id="E2cYebkVHFcdTyyEUBHE-28" value="No" style="edgeStyle=orthogonalEdgeStyle;rounded=0;orthogonalLoop=1;jettySize=auto;html=1;entryX=0;entryY=0.5;entryDx=0;entryDy=0;" parent="1" source="E2cYebkVHFcdTyyEUBHE-25" target="E2cYebkVHFcdTyyEUBHE-27" edge="1">
          <mxGeometry relative="1" as="geometry">
            <Array as="points">
              <mxPoint x="520" y="470" />
              <mxPoint x="520" y="350" />
            </Array>
          </mxGeometry>
        </mxCell>
        <mxCell id="E2cYebkVHFcdTyyEUBHE-25" value="Do you play PCVR on it?" style="rounded=0;whiteSpace=wrap;html=1;fillColor=#f5f5f5;fontColor=#333333;strokeColor=#666666;dashed=1;" parent="1" vertex="1">
          <mxGeometry x="360" y="440" width="120" height="60" as="geometry" />
        </mxCell>
        <mxCell id="E2cYebkVHFcdTyyEUBHE-32" value="Meta" style="edgeStyle=orthogonalEdgeStyle;rounded=0;orthogonalLoop=1;jettySize=auto;html=1;" parent="1" source="E2cYebkVHFcdTyyEUBHE-27" target="Jb1FCXwAwcwZNVxrsl0a-1" edge="1">
          <mxGeometry relative="1" as="geometry" />
        </mxCell>
        <mxCell id="E2cYebkVHFcdTyyEUBHE-33" value="Others" style="edgeStyle=orthogonalEdgeStyle;rounded=0;orthogonalLoop=1;jettySize=auto;html=1;" parent="1" source="E2cYebkVHFcdTyyEUBHE-27" edge="1">
          <mxGeometry x="0.7143" relative="1" as="geometry">
            <mxPoint x="620" y="440" as="targetPoint" />
            <Array as="points">
              <mxPoint x="620" y="370" />
            </Array>
            <mxPoint as="offset" />
          </mxGeometry>
        </mxCell>
        <mxCell id="E2cYebkVHFcdTyyEUBHE-34" value="Pico" style="edgeStyle=orthogonalEdgeStyle;rounded=0;orthogonalLoop=1;jettySize=auto;html=1;" parent="1" source="E2cYebkVHFcdTyyEUBHE-27" target="E2cYebkVHFcdTyyEUBHE-30" edge="1">
          <mxGeometry x="0.7143" relative="1" as="geometry">
            <Array as="points">
              <mxPoint x="1020" y="370" />
            </Array>
            <mxPoint as="offset" />
          </mxGeometry>
        </mxCell>
        <mxCell id="E2cYebkVHFcdTyyEUBHE-27" value="Which platform?" style="rounded=0;whiteSpace=wrap;html=1;fillColor=#f5f5f5;fontColor=#333333;strokeColor=#666666;dashed=1;" parent="1" vertex="1">
          <mxGeometry x="760" y="320" width="120" height="60" as="geometry" />
        </mxCell>
        <mxCell id="E2cYebkVHFcdTyyEUBHE-39" style="edgeStyle=orthogonalEdgeStyle;rounded=0;orthogonalLoop=1;jettySize=auto;html=1;" parent="1" target="E2cYebkVHFcdTyyEUBHE-35" edge="1">
          <mxGeometry relative="1" as="geometry">
            <mxPoint x="620" y="500" as="sourcePoint" />
            <mxPoint x="620" y="560" as="targetPoint" />
          </mxGeometry>
        </mxCell>
        <mxCell id="E2cYebkVHFcdTyyEUBHE-29" value="Anything else" style="rounded=1;whiteSpace=wrap;html=1;" parent="1" vertex="1">
          <mxGeometry x="560" y="440" width="120" height="60" as="geometry" />
        </mxCell>
        <mxCell id="Fmn0tTmoaa08dCbdX1xN-1" style="edgeStyle=orthogonalEdgeStyle;rounded=0;orthogonalLoop=1;jettySize=auto;html=1;entryX=1;entryY=0.5;entryDx=0;entryDy=0;" parent="1" source="E2cYebkVHFcdTyyEUBHE-30" target="E2cYebkVHFcdTyyEUBHE-37" edge="1">
          <mxGeometry relative="1" as="geometry">
            <Array as="points">
              <mxPoint x="1020" y="760" />
            </Array>
          </mxGeometry>
        </mxCell>
        <mxCell id="E2cYebkVHFcdTyyEUBHE-30" value="Pico 4" style="rounded=1;whiteSpace=wrap;html=1;" parent="1" vertex="1">
          <mxGeometry x="960" y="440" width="120" height="60" as="geometry" />
        </mxCell>
        <mxCell id="E2cYebkVHFcdTyyEUBHE-40" style="edgeStyle=orthogonalEdgeStyle;rounded=0;orthogonalLoop=1;jettySize=auto;html=1;entryX=0.5;entryY=0;entryDx=0;entryDy=0;" parent="1" source="E2cYebkVHFcdTyyEUBHE-31" target="E2cYebkVHFcdTyyEUBHE-37" edge="1">
          <mxGeometry relative="1" as="geometry" />
        </mxCell>
        <mxCell id="E2cYebkVHFcdTyyEUBHE-31" value="Quest 2&lt;br&gt;Quest Pro&lt;br&gt;Quest 3" style="rounded=1;whiteSpace=wrap;html=1;" parent="1" vertex="1">
          <mxGeometry x="880" y="540" width="120" height="60" as="geometry" />
        </mxCell>
        <mxCell id="E2cYebkVHFcdTyyEUBHE-35" value="No" style="rounded=0;whiteSpace=wrap;html=1;fillColor=#f8cecc;strokeColor=#b85450;" parent="1" vertex="1">
          <mxGeometry x="560" y="680" width="120" height="60" as="geometry" />
        </mxCell>
        <mxCell id="E2cYebkVHFcdTyyEUBHE-37" value="Yes, VRChat OSC only&lt;br&gt;First time setup required*&lt;br&gt;(For Wi-Fi)" style="rounded=0;whiteSpace=wrap;html=1;fillColor=#fff2cc;strokeColor=#d6b656;" parent="1" vertex="1">
          <mxGeometry x="760" y="720" width="120" height="80" as="geometry" />
        </mxCell>
        <mxCell id="E2cYebkVHFcdTyyEUBHE-47" value="No" style="edgeStyle=orthogonalEdgeStyle;rounded=0;orthogonalLoop=1;jettySize=auto;html=1;entryX=0;entryY=0.5;entryDx=0;entryDy=0;" parent="1" source="E2cYebkVHFcdTyyEUBHE-46" target="E2cYebkVHFcdTyyEUBHE-35" edge="1">
          <mxGeometry relative="1" as="geometry">
            <mxPoint x="340" y="800" as="targetPoint" />
            <Array as="points">
              <mxPoint x="340" y="710" />
            </Array>
          </mxGeometry>
        </mxCell>
        <mxCell id="E2cYebkVHFcdTyyEUBHE-49" value="Yes" style="edgeStyle=orthogonalEdgeStyle;rounded=0;orthogonalLoop=1;jettySize=auto;html=1;entryX=0;entryY=0.5;entryDx=0;entryDy=0;" parent="1" source="E2cYebkVHFcdTyyEUBHE-46" target="E2cYebkVHFcdTyyEUBHE-37" edge="1">
          <mxGeometry relative="1" as="geometry">
            <Array as="points">
              <mxPoint x="340" y="760" />
            </Array>
            <mxPoint x="200" y="830" as="targetPoint" />
          </mxGeometry>
        </mxCell>
        <mxCell id="E2cYebkVHFcdTyyEUBHE-46" value="Oculus Software&lt;br&gt;or Viveport?" style="rounded=0;whiteSpace=wrap;html=1;fillColor=#f5f5f5;fontColor=#333333;strokeColor=#666666;dashed=1;" parent="1" vertex="1">
          <mxGeometry x="280" y="680" width="120" height="60" as="geometry" />
        </mxCell>
        <mxCell id="E2cYebkVHFcdTyyEUBHE-50" value="CC0 licensed by MenacingExiler&lt;br&gt;Update 30th November 2023" style="text;html=1;align=center;verticalAlign=middle;resizable=0;points=[];autosize=1;strokeColor=none;fillColor=none;" parent="1" vertex="1">
          <mxGeometry x="880" y="840" width="200" height="40" as="geometry" />
        </mxCell>
        <mxCell id="E2cYebkVHFcdTyyEUBHE-51" value="*This setup requires Wi-Fi setup for first time. Setup can be done with connecting to PC or phone OTG. After that, you can SlimeVR with any device that can run SlimeVR software. More on this on SlimeVR Discord. This can be skipped if you hardcoded Wi-Fi." style="text;html=1;strokeColor=none;fillColor=none;align=center;verticalAlign=middle;whiteSpace=wrap;rounded=0;" parent="1" vertex="1">
          <mxGeometry x="240" y="800" width="480" height="60" as="geometry" />
        </mxCell>
        <mxCell id="E2cYebkVHFcdTyyEUBHE-52" value="Even if you don&#39;t have VR or do not meet requirements, you can still use for mocap or Vtubing.&lt;br&gt;We assume your ability to run PCVR means you meet requirement to run your VR game on it" style="text;html=1;align=center;verticalAlign=middle;resizable=0;points=[];autosize=1;strokeColor=none;fillColor=none;" parent="1" vertex="1">
          <mxGeometry x="555" y="80" width="530" height="40" as="geometry" />
        </mxCell>
        <mxCell id="4j3Ei-NiNjzvzMqdt6r4-1" value="More information about SlimeVR:&amp;nbsp;https://docs.slimevr.dev/" style="text;html=1;align=center;verticalAlign=middle;resizable=0;points=[];autosize=1;strokeColor=none;fillColor=none;" parent="1" vertex="1">
          <mxGeometry x="655" y="128" width="330" height="30" as="geometry" />
        </mxCell>
        <mxCell id="Jb1FCXwAwcwZNVxrsl0a-2" style="edgeStyle=orthogonalEdgeStyle;rounded=0;orthogonalLoop=1;jettySize=auto;html=1;" parent="1" source="Jb1FCXwAwcwZNVxrsl0a-1" target="E2cYebkVHFcdTyyEUBHE-31" edge="1">
          <mxGeometry relative="1" as="geometry">
            <Array as="points">
              <mxPoint x="840" y="570" />
            </Array>
          </mxGeometry>
        </mxCell>
        <mxCell id="Jb1FCXwAwcwZNVxrsl0a-4" style="edgeStyle=orthogonalEdgeStyle;rounded=0;orthogonalLoop=1;jettySize=auto;html=1;entryX=1;entryY=0.5;entryDx=0;entryDy=0;" parent="1" source="Jb1FCXwAwcwZNVxrsl0a-1" target="Jb1FCXwAwcwZNVxrsl0a-3" edge="1">
          <mxGeometry relative="1" as="geometry">
            <Array as="points">
              <mxPoint x="800" y="570" />
            </Array>
          </mxGeometry>
        </mxCell>
        <mxCell id="Jb1FCXwAwcwZNVxrsl0a-1" value="Which headset?" style="rounded=1;whiteSpace=wrap;html=1;" parent="1" vertex="1">
          <mxGeometry x="760" y="440" width="120" height="60" as="geometry" />
        </mxCell>
        <mxCell id="Jb1FCXwAwcwZNVxrsl0a-5" style="edgeStyle=orthogonalEdgeStyle;rounded=0;orthogonalLoop=1;jettySize=auto;html=1;entryX=1;entryY=0.5;entryDx=0;entryDy=0;" parent="1" source="Jb1FCXwAwcwZNVxrsl0a-3" target="E2cYebkVHFcdTyyEUBHE-35" edge="1">
          <mxGeometry relative="1" as="geometry" />
        </mxCell>
        <mxCell id="Jb1FCXwAwcwZNVxrsl0a-3" value="GearVR&lt;br&gt;Oculus Go&lt;br&gt;Quest 1" style="rounded=1;whiteSpace=wrap;html=1;" parent="1" vertex="1">
          <mxGeometry x="640" y="540" width="120" height="60" as="geometry" />
        </mxCell>
      </root>
    </mxGraphModel>
  </diagram>
</mxfile>
